<?xml version="1.0" encoding="UTF-8" standalone="no"?>
<svg
   xmlns:dc="http://purl.org/dc/elements/1.1/"
   xmlns:cc="http://creativecommons.org/ns#"
   xmlns:rdf="http://www.w3.org/1999/02/22-rdf-syntax-ns#"
   xmlns:svg="http://www.w3.org/2000/svg"
   xmlns="http://www.w3.org/2000/svg"
   xmlns:sodipodi="http://sodipodi.sourceforge.net/DTD/sodipodi-0.dtd"
   xmlns:inkscape="http://www.inkscape.org/namespaces/inkscape"
   height="32px"
   style="enable-background:new 0 0 32 32;"
   version="1.1"
   viewBox="0 0 32 32"
   width="32px"
   xml:space="preserve"
   id="svg2"
   inkscape:version="0.91 r13725"
   sodipodi:docname="share.svg"><metadata
     id="metadata12"><rdf:RDF><cc:Work
         rdf:about=""><dc:format>image/svg+xml</dc:format><dc:type
           rdf:resource="http://purl.org/dc/dcmitype/StillImage" /></cc:Work></rdf:RDF></metadata><defs
     id="defs10" /><sodipodi:namedview
     pagecolor="#ffffff"
     bordercolor="#666666"
     borderopacity="1"
     objecttolerance="10"
     gridtolerance="10"
     guidetolerance="10"
     inkscape:pageopacity="0"
     inkscape:pageshadow="2"
     inkscape:window-width="1224"
     inkscape:window-height="702"
     id="namedview8"
     showgrid="false"
     inkscape:zoom="7.375"
     inkscape:cx="-5.0169492"
     inkscape:cy="16"
     inkscape:window-x="187"
     inkscape:window-y="151"
     inkscape:window-maximized="0"
     inkscape:current-layer="share" /><g
     id="Layer_1" /><g
     id="share"><path
       d="M28,24c-0.973,0-1.832,0.391-2.523,0.965l-6.098-4.352C19.766,19.816,20,18.941,20,18   c0-1.293-0.422-2.488-1.117-3.465l7.133-7.137C26.609,7.746,27.262,8,28,8c2.211,0,4-1.789,4-4s-1.789-4-4-4s-4,1.789-4,4   c0,0.738,0.254,1.391,0.602,1.984l-7.133,7.137C16.484,12.418,15.297,12,14,12c-2.289,0-4.258,1.301-5.27,3.191l-4.816-1.609   C3.719,12.684,2.957,12,2,12c-1.105,0-2,0.895-2,2s0.895,2,2,2c0.504,0,0.953-0.203,1.305-0.512l4.789,1.598   C8.047,17.387,8,17.688,8,18c0,3.312,2.688,6,6,6c1.648,0,3.145-0.668,4.23-1.746l6.059,4.324C24.117,27.023,24,27.496,24,28   c0,2.207,1.789,4,4,4s4-1.793,4-4S30.211,24,28,24z"
       style="fill:#f9f9f9"
       id="path6" /></g></svg>