<?xml version="1.0" ?><!DOCTYPE svg  PUBLIC '-//W3C//DTD SVG 1.1//EN'  'http://www.w3.org/Graphics/SVG/1.1/DTD/svg11.dtd'><svg height="32px" id="Layer_1" style="enable-background:new 0 0 32 32;" version="1.1" viewBox="0 0 32 32" width="32px" xml:space="preserve" xmlns="http://www.w3.org/2000/svg" xmlns:xlink="http://www.w3.org/1999/xlink"><g transform="translate(48 48)"><path d="M-37.043-40.303c3.498-0.004,11.434-0.002,14.932-0.001c0.566-0.023,1.094,0.455,1.096,1.027   c0.01,2.9-0.002,5.802,0.004,8.7c1.547,0.006,3.092,0,4.639,0.004c-2.057,2.275-4.133,4.535-6.196,6.802   c-0.097,0.175-0.211,0.003-0.3-0.084c-2.024-2.247-4.092-4.46-6.11-6.713c1.541-0.015,3.082,0,4.623-0.009   c0.017-2.126,0.015-4.255,0.002-6.382c-1.666-0.007-7.769,0.001-9.435-0.004c-1.071-1.123-2.184-2.213-3.252-3.342L-37.043-40.303z   "/><path d="M-41.424-40.228c0.106-0.189,0.231,0.029,0.327,0.117c2.021,2.231,4.074,4.436,6.08,6.68   c-1.543,0.015-3.088-0.004-4.633,0.009c-0.006,2.125-0.002,4.25,0,6.375c1.668,0.016,7.959-0.002,9.629,0.008   c1.076,1.121,2.185,2.211,3.248,3.342c-3.519,0-11.656,0.004-15.172-0.002c-0.572,0.006-1.063-0.516-1.041-1.082   c-0.002-2.883,0.002-5.762-0.002-8.642c-1.545-0.006-3.093,0.002-4.64-0.004C-45.571-35.706-43.498-37.965-41.424-40.228   L-41.424-40.228z"/></g></svg>