<?xml version="1.0" encoding="UTF-8"?>
<svg version="1.1" viewBox="0 0 500 500" xmlns="http://www.w3.org/2000/svg">
    <g transform="translate(0 -552.36)">
        <path d="m0 552.36v500h500v-500z" fill="#45619d"/>
        <path transform="translate(0 552.36)"
              d="m289.69 60c-67.784 0-90.156 31.101-90.156 84.438v42.219h-44.531v63.375h44.531v189.97h82.125v-189.97h55.812l7.5-63.375h-63.312v-37.656c0-17.02 3.7352-25.656 30.156-25.656h33.156v-63.344h-55.281z"
              fill="#fff"/>
        <path transform="translate(0 552.36)"
              d="m344.97 60v63.344h-33.156c-26.421 0-30.156 8.6359-30.156 25.656v37.656h63.312l-7.5 63.375h-55.812v189.97h-82.125l60 60h240.47v-284.97l-155.03-155.03z"
              opacity=".3"/>
    </g>
</svg>
