<?xml version="1.0" encoding="UTF-8"?>
<svg version="1.1" viewBox="0 0 500 500" xmlns="http://www.w3.org/2000/svg">
    <g transform="translate(0 -552.36)">
        <path d="m0 552.36v500h500v-500z" fill="#55acee"/>
        <path transform="translate(0 552.36)" d="m500 154.44v345.56h-325.71l-124.29-124.29 8.6607 2.4554 112.05-4.5982-56.629-56.629 3.2626-28.612-28.955-28.955 271.61-105.09 78.998-60.845z" opacity=".3"/>
        <path transform="translate(0 552.36)" d="m324.81 87.5c-44.338 1.1235-79.906 37.414-79.906 82.031 0 6.4228 0.68902 12.702 2.0938 18.719-68.207-3.4266-128.68-36.097-169.16-85.75-7.0643 12.115-11.125 26.227-11.125 41.281 0 28.468 14.51 53.568 36.531 68.281-13.447-0.43035-26.12-4.1345-37.188-10.281-0.005996 0.34102 0 0.71336 0 1.0625 0 39.755 28.297 72.886 65.844 80.438-6.8856 1.8676-14.138 2.875-21.625 2.875-5.2942 0-10.428-0.50248-15.438-1.4688 10.45 32.601 40.719 56.342 76.625 57-28.087 22.013-63.419 35.125-101.88 35.125-6.6177 0-13.171-0.36173-19.594-1.125 36.328 23.296 79.441 36.875 125.78 36.875 150.96 0 233.5-125.05 233.5-233.5 0-3.5565-0.06465-7.1322-0.21875-10.656 16.029-11.546 29.943-26.01 40.938-42.469-14.705 6.5365-30.52 10.964-47.125 12.938 16.954-10.15 29.963-26.227 36.094-45.406-15.858 9.411-33.425 16.251-52.125 19.938-14.965-15.947-36.302-25.906-59.906-25.906-0.70808 0-1.4212-0.017887-2.125 0z" fill="#fff"/>
    </g>
</svg>
